
<svg fill="none" height="34" viewBox="0 0 35 34" width="35" xmlns="http://www.w3.org/2000/svg" xmlns:xlink="http://www.w3.org/1999/xlink"><radialGradient id="a" cx="0" cy="0" gradientTransform="matrix(22.9205 0 0 19.1563 17.1113 15.0244)" gradientUnits="userSpaceOnUse" r="1"><stop offset=".82" stop-color="#0b5cff" stop-opacity="0"/><stop offset=".98" stop-color="#003cb3"/></radialGradient><radialGradient id="b" cx="0" cy="0" gradientTransform="matrix(22.9122 0 0 19.1495 17.1113 18.9683)" gradientUnits="userSpaceOnUse" r="1"><stop offset=".8" stop-color="#0b5cff" stop-opacity="0"/><stop offset="1" stop-color="#71a5f1"/></radialGradient><path d="m34.1113 16.9999c0 1.8179-.1461 3.6005-.4253 5.3386-.9242 5.754-5.4821 10.3118-11.2361 11.236-1.7382.2792-3.5208.4253-5.3386.4253s-3.6004-.1461-5.3385-.4253c-5.75405-.9242-10.31197-5.482-11.23614-11.236-.279174-1.7381-.425332-3.5207-.425332-5.3386s.146158-3.6004.425332-5.3386c.92417-5.75397 5.48209-10.31181 11.23614-11.235973 1.7381-.279172 3.5207-.425327 5.3385-.425327s3.6004.146155 5.3386.425327c5.754.924163 10.3119 5.482003 11.2361 11.235973.2792 1.7381.4253 3.5207.4253 5.3386z" fill="#0b5cff"/><path d="m34.1113 16.9999c0 1.8179-.1461 3.6005-.4253 5.3386-.9242 5.754-5.4821 10.3118-11.2361 11.236-1.7382.2792-3.5208.4253-5.3386.4253s-3.6004-.1461-5.3385-.4253c-5.75405-.9242-10.31197-5.482-11.23614-11.236-.279174-1.7381-.425332-3.5207-.425332-5.3386s.146158-3.6004.425332-5.3386c.92417-5.75397 5.48209-10.31181 11.23614-11.235973 1.7381-.279172 3.5207-.425327 5.3385-.425327s3.6004.146155 5.3386.425327c5.754.924163 10.3119 5.482003 11.2361 11.235973.2792 1.7381.4253 3.5207.4253 5.3386z" fill="url(#a)"/><path d="m34.1112 16.9999c0 1.8179-.1461 3.6005-.4253 5.3385-.9242 5.7541-5.4821 10.3119-11.2361 11.236-1.7382.2792-3.5207.4254-5.3385.4254s-3.6004-.1462-5.3386-.4254c-5.75407-.9241-10.31193-5.4819-11.236101-11.236-.279173-1.7381-.425271-3.5206-.425271-5.3385 0-1.8178.146098-3.6005.425271-5.3386.924231-5.75397 5.482091-10.31193 11.236101-11.236031 1.7382-.279172 3.5207-.425269 5.3386-.425269 1.8178 0 3.6004.146097 5.3385.425269 5.7541.924101 10.3119 5.482061 11.2361 11.236031.2792 1.7381.4253 3.5207.4253 5.3386z" fill="url(#b)"/><path clip-rule="evenodd" d="m24.1519 19.4029c.3144.7028 1.1374 1.0264 1.8402.712s1.0264-1.1281.712-1.8216l-2.8481-6.5193c-.3051-.712-1.1281-1.0264-1.8309-.7212-.712.3051-1.0265 1.1281-.7213 1.8309zm-4.7807 5.1876c.3051.7028 1.1281 1.0265 1.8309.7213.6935-.3051 1.0172-1.1281.7213-1.8309l-5.0952-11.7161c-.3052-.7028-1.1282-1.0264-1.8309-.7213-.7028.3052-1.0265 1.1282-.7213 1.8309zm-5.2062.7213c.3422-.1479.6011-.4253.7398-.7675.1387-.3421.1294-.7305-.0185-1.0634l-2.8759-6.6302c-.3051-.7028-1.1281-1.0264-1.8309-.7213-.70277.3052-1.02642 1.1282-.72127 1.831l2.87587 6.6301c.3051.7028 1.1281 1.0265 1.8309.7213zm-5.4003-13.8799c-.81375 0-1.47954.6658-1.47954 1.4795 0 .823.66579 1.4796 1.47954 1.4796.81374 0 1.4795-.6658 1.4795-1.4796 0-.8137-.66576-1.4795-1.4795-1.4795z" fill="#fff" fill-rule="evenodd"/></svg>